<?xml version="1.0" encoding="UTF-8" standalone="no"?>
<!DOCTYPE svg PUBLIC "-//W3C//DTD SVG 1.1//EN" "http://www.w3.org/Graphics/SVG/1.1/DTD/svg11.dtd">
<svg width="100%" height="100%" viewBox="0 0 464 447" version="1.1" xmlns="http://www.w3.org/2000/svg" xmlns:xlink="http://www.w3.org/1999/xlink" xml:space="preserve" xmlns:serif="http://www.serif.com/" style="fill-rule:evenodd;clip-rule:evenodd;stroke-linejoin:round;stroke-miterlimit:2;">
    <g transform="matrix(1,0,0,1,-616.117,-200.725)">
        <g transform="matrix(1,0,0,1,48,36)">
            <g transform="matrix(1,0,0,1,7,0)">
                <g id="roda3" transform="matrix(1.1259,0,0,1.07346,28.6028,46.8939)">
                    <circle cx="743.5" cy="497.5" r="28.5" style="fill:rgb(192,58,69);"/>
                </g>
                <g id="roda31" serif:id="roda3" transform="matrix(0.416243,0,0,0.388948,556.233,387.437)">
                    <circle cx="743.5" cy="497.5" r="28.5" style="fill:white;"/>
                </g>
            </g>
            <g transform="matrix(1,0,0,1,-7,0)">
                <g id="roda32" serif:id="roda3" transform="matrix(1.1259,0,0,1.07346,-145.59,46.8939)">
                    <circle cx="743.5" cy="497.5" r="28.5" style="fill:rgb(192,58,69);"/>
                </g>
                <g id="roda33" serif:id="roda3" transform="matrix(0.416243,0,0,0.388948,382.04,387.437)">
                    <circle cx="743.5" cy="497.5" r="28.5" style="fill:white;"/>
                </g>
            </g>
            <path d="M658.7,560.22C655.419,555.892 652.956,550.866 651.524,545.036C641.116,502.673 692.937,421.654 669.053,335.777C635.387,214.727 515.613,155.221 594.553,165.96C654.544,174.121 627.781,219.928 674.531,234.983C700.228,243.258 769.652,243.001 848.062,242.462C931.429,241.89 1009.71,231.015 1026.22,271.137C1052.42,334.815 983.751,413.189 902.566,452.75C773.848,515.473 698.383,458.381 693.156,507.786C686.104,574.45 903.803,525.597 955.003,522.527C968.118,521.741 970.309,523.958 955.003,531.889C950.828,534.052 930.207,546.374 895.123,556.761C889.148,551.529 881.115,548.323 872.286,548.323C856.833,548.323 843.816,558.145 840.002,571.467C808.435,579.024 777.218,584.027 759.221,584.807C746.631,585.352 732.53,586.314 717.862,584.917C718.186,583.171 718.355,581.377 718.355,579.547C718.355,562.314 703.382,548.323 684.939,548.323C674.304,548.323 664.822,552.976 658.7,560.22Z" style="fill:url(#_Linear1);"/>
            <path d="M855.841,376.275L886.921,377.05C884.873,392.557 879.303,404.539 870.211,412.997C861.119,421.455 849.26,425.684 834.634,425.684C819.765,425.684 807.321,420.879 797.303,411.27C787.284,401.661 782.275,389.737 782.275,375.5C782.275,361.168 787.382,349.115 797.595,339.342C807.809,329.568 820.399,324.681 835.366,324.681C850.089,324.681 862.374,329.474 872.222,339.06C879.047,345.685 883.874,354.919 886.701,366.76L854.891,368.804C851.332,358.278 844.58,353.015 834.634,353.015C828.297,353.015 823.068,355.13 818.949,359.359C814.829,363.588 812.769,368.968 812.769,375.5C812.769,381.796 814.792,387 818.839,391.112C822.885,395.223 828.004,397.279 834.196,397.279C840.485,397.279 845.494,395.47 849.223,391.852C852.953,388.234 855.159,383.041 855.841,376.275Z" style="fill:white;"/>
            <path d="M669.233,324.681L719.375,324.681C737.082,324.681 750.948,328.555 760.971,336.304C772.878,345.573 778.831,358.153 778.831,374.042C778.831,389.245 773.743,401.653 763.566,411.265C753.39,420.878 740.288,425.684 724.26,425.684C722.377,425.684 719.299,425.586 715.025,425.39L715.025,395.891L719.986,395.891C738.049,395.891 747.081,388.608 747.081,374.042C747.081,360.359 738.202,353.518 720.444,353.518L709.988,353.518L709.988,425.095L675.399,425.095C679.993,397.012 681.212,366.71 672.609,335.777C671.566,332.025 670.439,328.331 669.233,324.681Z" style="fill:white;"/>
        </g>
    </g>
    <defs>
        <linearGradient id="_Linear1" x1="0" y1="0" x2="1" y2="0" gradientUnits="userSpaceOnUse" gradientTransform="matrix(421.883,303.275,-303.275,421.883,568.117,164.725)"><stop offset="0" style="stop-color:rgb(248,221,89);stop-opacity:1"/><stop offset="0.44" style="stop-color:rgb(228,170,81);stop-opacity:1"/><stop offset="1" style="stop-color:rgb(183,52,62);stop-opacity:1"/></linearGradient>
    </defs>
</svg>
